<svg xmlns:xlink="http://www.w3.org/1999/xlink" xmlns="http://www.w3.org/2000/svg" width="1580" height="200" viewBox="0 0 1580 200" class="_l _b4 _a8 _an _b5 _b6"><defs><pattern id="b___1586216136" patternTransform="translate(10 60)"></pattern><pattern id="b___1586216136" patternTransform="translate(10 60)"></pattern><pattern id="c___1586216136" patternTransform="matrix(1 0 0 1.008 125.357 328.592)"></pattern><pattern id="d___1586216136" patternTransform="translate(10 60)"></pattern><pattern id="e___1586216136" patternTransform="translate(10 60)"></pattern><pattern id="f___1586216136" patternTransform="translate(10 60)"></pattern><pattern id="g___1586216136" patternTransform="translate(10 60)"></pattern></defs><pattern x="6746" y="-950" width="5" height="5" patternUnits="userSpaceOnUse" id="a___1586216136" viewBox="0 -5 5 5" overflow="visible"><path fill="none" d="M0-5h5v5H0z"></path><path d="M2-3H0v-2h2z"></path></pattern><path fill="#000000" d="M0 0h1580v200H0z" fill-opacity="0"></path><path style="" d="M1580 200c0-108.5-87.5-196-196-196h-227c-11.9 0-23.2 3.9-32 12s-20.9 13-32.8 13H989.9c-22.3 0-43.1 7.5-58.9 22-15.8 14.5-37.7 23-60 23H740c-34.8 0-68.6 13.2-94 37-26.1 24.4-61.8 38-98.9 38H530c-26.2 0-50.7 10.2-70 28l-26 23h1146z" fill="#1E96BE"></path><path d="M1530.6 150.6c-11.3-11.3-26.5-17.6-42.4-17.6H1341v67h239l-49.4-49.4zM943 155h-17v-38c5.8 0 11.5-.7 17-2v40zm99-81v14l-14-14"></path><path fill="#FFFFFF" d="M860 35v9h-10v156h48V45h5V35m72 120h-67l45 45h22M943 94h32v61h-32z"></path><path fill="#D6D6D5" d="M948 101h27v2h-27zm0 6h27v2h-27zm0 6h27v2h-27zm0 6h27v2h-27zm0 6h27v2h-27zm0 6h27v2h-27zm0 6h27v2h-27zm0 6h27v2h-27z"></path><path fill="#FFFFFF" d="M952 88h36v6h-36z"></path><path style="" d="M952 88l19-19h17v19" fill="#89DAC1"></path><path class="illustration-tertiary-fill" d="M1042 88l-19-19h-35v19"></path><path class="illustration-primary-fill" d="M999 82v-6h-6m19 6v-6h-6m19 6v-6h-6"></path><path fill="#FFFFFF" d="M971 66h17v3h-17zm104 107l-55-55h55"></path><path fill="#D6D6D5" d="M1065 124h2v7h-2zm-8 0h2v7h-2zm-8 0h2v7h-2zm16 13h2v7h-2zm-8 0h2v7h-2zm-8 0h2v7h-2zm16 13h2v7h-2zm-14 1l-1-1h1m8 7h-1l-1-1v-6h2"></path><path class="illustration-tertiary-fill" d="M699 143h21v8h-21zm0-14h21v8h-21zm0-14h21v8h-21zm0-14v8h24l-8-8"></path><path fill="#D6D6D5" d="M699 137h21v6h-21zm0-14h21v6h-21zm0-14h17v6h-17z"></path><path class="illustration-primary-fill" d="M699 143v8h-55l8-8m47-14v8h-44l8-8m36-14v8h-35l8-8m27-14v8h-25l8-8"></path><path fill="#FFFFFF" d="M663 137h36v6h-36zm9-14h27v6h-27zm10-14h17v6h-17z"></path><path d="M1274 156h-60V75h12.6c8 0 15.6 3.2 21.2 8.8L1274 110v46z"></path><path fill="#FFFFFF" d="M1316 196l-40-40h-10v-38h50"></path><path class="illustration-tertiary-fill" d="M1316 110v8h26l-8-8"></path><path class="illustration-primary-fill" d="M1316 110v8h-50l8.4-8"></path><path fill="#D6D6D5" d="M1310 123h2v7h-2zm-8 0h2v7h-2zm-8 0h2v7h-2zm-8 0h2v7h-2zm-8 0h2v7h-2zm-8 0h2v7h-2zm40 13h2v7h-2zm-8 0h2v7h-2zm-8 0h2v7h-2zm-8 0h2v7h-2zm-8 0h2v7h-2zm-8 0h2v7h-2zm40 13h2v7h-2zm-8 0h2v7h-2zm-8 0h2v7h-2zm-8 0h2v7h-2zm-8 0h2v7h-2zm-8 0h2v7h-2zm-494 16h74v35h-74z"></path><pattern id="b___1586216136" patternTransform="translate(10 60)"></pattern><path fill="url(&quot;#b___1586216136&quot;)" d="M776 165h74v35h-74z"></path><path fill="#FFFFFF" d="M776 35v48h-17v6h-25c-7.7 0-14 6.3-14 14v97h56V89h32V3l-32 32zm212 17h2v14h-2z"></path><path class="illustration-tertiary-fill" d="M990 52h6v2h-6z"></path><path fill="#FFFFFF" d="M1005 52h2v14h-2z"></path><path class="illustration-tertiary-fill" d="M1007 52h6v2h-6z"></path><path fill="#FFFFFF" d="M1021 52h2v14h-2z"></path><path class="illustration-tertiary-fill" d="M1023 52h6v2h-6z"></path><path d="M769 170h2v7h-2zm-8 0h2v7h-2zm-8 0h2v7h-2zm16 13h2v7h-2zm-8 0h2v7h-2zm-8 0h2v7h-2zm155-28h18V45h-5V35h-18v10h-5v155h55" fill="#D6D6D5"></path><pattern id="c___1586216136" patternTransform="matrix(1 0 0 1.008 125.357 328.592)"></pattern><path fill="url(&quot;#c___1586216136&quot;)" d="M623 151h41v49h-41z"></path><path fill="#D6D6D5" d="M623 151v49h97v-49M860 21h2v14h-2zm6 0h2v14h-2z"></path><path class="illustration-primary-fill" d="M1065 16c-6.9 0-13 6.1-13 13h26c0-6.9-6.1-13-13-13z"></path><path class="illustration-tertiary-fill" d="M1065 16v13h13c0-6.9-6.1-13-13-13z"></path><path fill="#FFFFFF" d="M1067 112V32h-2v-3h-20v3h-3v80"></path><path fill="#D6D6D5" d="M1061 37h2v7h-2zm0 11h2v7h-2zm0 11h2v7h-2zm0 11h2v7h-2zm0 11h2v7h-2zm-5-44h2v7h-2zm0 11h2v7h-2zm0 11h2v7h-2zm0 11h2v7h-2zm0 11h2v7h-2zm-5-44h2v7h-2zm0 11h2v7h-2zm0 11h2v7h-2zm0 11h2v7h-2zm0 11h2v7h-2zm-5-44h2v7h-2zm0 11h2v7h-2zm0 11h2v7h-2zm0 11h2v7h-2zm0 11h2v7h-2z"></path><path fill="#FFFFFF" d="M1162 41h26v100h-26z"></path><path fill="#D6D6D5" d="M1214 141h-26V41c14.4 0 26 11.6 26 26v74z"></path><path fill="#FFFFFF" d="M1143 156h61v44h-61z"></path><path fill="#D6D6D5" d="M1204 156h72v44h-72z"></path><path class="illustration-tertiary-fill" d="M1219 169c-1.7 0-3 1.3-3 3v28h6v-28c0-1.7-1.3-3-3-3zm14 0c-1.7 0-3 1.3-3 3v28h6v-28c0-1.7-1.3-3-3-3zm14 0c-1.7 0-3 1.4-3 3v28h6v-28c0-1.7-1.3-3-3-3zm14 0c-1.7 0-3 1.3-3 3v28h6v-28c0-1.7-1.3-3-3-3z"></path><path fill="#D6D6D5" d="M1165 169c-1.7 0-3 1.3-3 3v28h6v-28c0-1.7-1.3-3-3-3zm14 0c-1.7 0-3 1.3-3 3v28h6v-28c0-1.7-1.3-3-3-3zm14 0c-1.7 0-3 1.3-3 3v28h6v-28c0-1.7-1.3-3-3-3z"></path><path class="illustration-primary-fill" d="M747 165v-4h5c4.6 0 8.7-1.9 12-5l2-2h10v11h-29z"></path><path class="illustration-tertiary-fill" d="M850 165v-4h-4c-4.6 0-9.8-1.8-13-5l-2-2h-55v11h74zm354-9h72c-9.9-10.1-23-15-36-15-13.1 0-26.1 5.1-36 15z"></path><path fill="#D6D6D5" d="M1320 200l-44-44v44M1162 71h26v2h-26zm0 6h26v2h-26zm0 6h26v2h-26zm0 6h26v2h-26zm0 6h26v2h-26zm0 6h26v2h-26zm0 6h26v2h-26zm0 6h26v2h-26z"></path><path class="illustration-tertiary-fill" d="M1188 71h26v2h-26zm0 6h26v2h-26zm0 6h26v2h-26zm0 6h26v2h-26zm0 6h26v2h-26zm0 6h26v2h-26zm0 6h26v2h-26zm0 6h26v2h-26z"></path><pattern id="d___1586216136" patternTransform="translate(10 60)"></pattern><path fill="url(&quot;#d___1586216136&quot;)" d="M1188 41v26h26c0-14.5-11.9-26-26-26z"></path><path fill="#D6D6D5" d="M1355 165h35v35h-35z"></path><pattern id="e___1586216136" patternTransform="translate(10 60)"></pattern><path fill="url(&quot;#e___1586216136&quot;)" d="M1355 165h35v35h-35z"></path><path class="illustration-primary-fill" d="M1355 165h-26l13-13"></path><path class="illustration-tertiary-fill" d="M1377 152h-35l13 13h35m-506 17v2c0 1.3-.9 2.5-1.7 3.3l-2 2-.3.3V182h-2v18h2v-5.5c0-1.2.8-2.9 1.7-3.8l2-2c1-1 2.3-2.7 2.3-4.7v-2h-2zm77 7h2v11h-2zm-227 0h2v11h-2z"></path><path fill="#D6D6D5" d="M988 66h35v3h-35z"></path><pattern id="f___1586216136" patternTransform="translate(10 60)"></pattern><circle fill="url(&quot;#f___1586216136&quot;)" cx="1317" cy="52" r="32"></circle><circle class="illustration-secondary-fill" cx="1317" cy="52" r="22"></circle><circle fill="#F5F5F5" cx="1317" cy="52" r="17"></circle><path class="illustration-tertiary-fill" d="M667 154v32h2v-30m6 6v24h2v-22m6 6v16h2v-14m6 6v8h2v-6"></path><path fill="#FFFFFF" d="M623 151h-17.8c-6.2 0-11.2 5-11.2 11.2V200h29v-49z"></path><path class="illustration-tertiary-fill" d="M705 154h2v32h-2zm7 0h2v32h-2zM903 51h7v2h-7zm11 0h7v2h-7zm-11 6h7v2h-7zm11 0h7v2h-7zm-11 6h7v2h-7zm11 0h7v2h-7zm-11 6h7v2h-7zm11 0h7v2h-7zm-11 6h7v2h-7zm11 0h7v2h-7zm-11 6h7v2h-7zm11 0h7v2h-7zm-11 6h7v2h-7zm11 0h7v2h-7zm-11 6h7v2h-7zm11 0h7v2h-7zm-11 6h7v2h-7zm11 0h7v2h-7zm-11 6h7v2h-7zm11 0h7v2h-7zm-11 6h7v2h-7zm11 0h7v2h-7zm-11 6h7v2h-7zm11 0h7v2h-7zm-11 6h7v2h-7zm11 0h7v2h-7zm-11 6h7v2h-7zm11 0h7v2h-7zm-11 6h7v2h-7zm11 0h7v2h-7zm-11 6h7v2h-7zm11 0h7v2h-7zm-11 6h7v2h-7zm11 0h7v2h-7zm229-6h19v15h-19z"></path><path class="illustration-primary-fill" d="M1240 141h-78v15h42c9.9-9.9 22.9-15 36-15z"></path><path fill="#D6D6D5" d="M1355 176h-13v-58h-26v82h39"></path><path class="illustration-tertiary-fill" d="M1336 123h2v7h-2zm-8 0h2v7h-2zm-8 0h2v7h-2zm16 13h2v7h-2zm-8 0h2v7h-2zm-8 0h2v7h-2zm16 13h2v7h-2zm-8 0h2v7h-2zm-8 0h2v7h-2z"></path><path d="M846 161h4v-44h-12v42.3c2.5 1.1 5.4 1.7 8 1.7z"></path><path fill="#D6D6D5" d="M833 156c1.2 1.2 2.7 2.2 4.3 3h.7V3h-30v86h-32v65h55l2 2zm-99-60h42v2h-42zm0 6h42v2h-42zm0 6h42v2h-42zm0 6h42v2h-42zm0 6h42v2h-42zm0 6h42v2h-42zm0 6h42v2h-42zm0 6h42v2h-42z"></path><path class="illustration-tertiary-fill" d="M776 96h34v2h-34zm0 6h34v2h-34zm0 6h34v2h-34zm0 6h34v2h-34zm0 6h34v2h-34zm0 6h34v2h-34zm0 6h34v2h-34zm0 6h34v2h-34zM816 3h2v137h-2zm6 0h2v137h-2zm6 0h2v137h-2z"></path><path fill="#FFFFFF" d="M664 151h35v35"></path><path fill="#D6D6D5" d="M669 156v-2h-2m10 10v-10h-2v8m10 10v-18h-2v16m10 10v-26h-2v24"></path><path d="M1143 75h19v66h-19z"></path><path fill="#D6D6D5" d="M1082 32v-3h-17v3h2v80l-18-18h-7v-6h-54v6h-13v106h100v-27l-55-55h65V32"></path><path class="illustration-tertiary-fill" d="M1080 37h2v7h-2zm0 11h2v7h-2zm-5-11h2v7h-2zm0 11h2v7h-2zm-5-11h2v7h-2zm0 11h2v7h-2zm-95 53h74v2h-74zm0 6h74v2h-74zm0 6h74v2h-74zm0 6h45v2h-45zm0 6h45v2h-45zm0 6h45v2h-45zm0 6h45v2h-45zm0 6h45v2h-45z"></path><path fill="#FFFFFF" d="M1044.3 161.6c-1.2-1.2-3.3-.2-3.3 1.4v11l-12.7-12.4c-1.2-1.2-3.3-.2-3.3 1.4v11h-.1.1l-12.7-12.4c-1.2-1.2-3.3-.2-3.3 1.4v11l-12.7-12.4c-1.2-1.2-3.3-.3-3.3 1.4v37h64v-26l-12.7-12.4z"></path><path fill="#D6D6D5" d="M997 180h7v2h-7zm11 0h7v2h-7zm11 0h7v2h-7zm11 0h7v2h-7zm-33 6h7v2h-7zm11 0h7v2h-7zm11 0h7v2h-7zm11 0h7v2h-7zm-33 6h7v2h-7zm11 0h7v2h-7zm11 0h7v2h-7zm11 0h7v2h-7z"></path><path class="illustration-tertiary-fill" d="M1063 180h7v2h-7zm0 6h7v2h-7zm0 6h7v2h-7z"></path><path fill="#D6D6D5" d="M1041 150h2v7h-2zm-8 0h2v7h-2zm-8 0h2v7h-2z"></path><path class="illustration-tertiary-fill" d="M1049 150h2v7h-2zm-8 0h2v7h-2zm-8 0h2v7h-2zm-8 0h2v7h-2z"></path><path fill="#D6D6D5" d="M1033 137h2v7h-2zm-8 0h2v7h-2z"></path><path class="illustration-tertiary-fill" d="M1033 137h2v7h-2zm-8 0h2v7h-2zm0-13v7h2v-6l-1-1"></path><path fill="#D6D6D5" d="M1041 124h2v7h-2zm-8 0h2v7h-2zm10 17l-2-2v-2h2"></path><path class="illustration-tertiary-fill" d="M1059 157h-2v-2"></path><path fill="#F5F5F5" d="M1376 51.5c0-3 2.5-5.5 5.5-5.5h50.6c6.3 0 12.4-2.5 16.9-7 4.5-4.5 10.6-7 16.9-7h34.7c4.1 0 8-1.6 10.9-4.5 2.9-2.9 6.8-4.5 10.9-4.5h22.6c9.4 0 17 7.6 17 17s-7.6 17-17 17h-163.5c-3 0-5.5-2.5-5.5-5.5z"></path><pattern id="g___1586216136" patternTransform="translate(10 60)"></pattern><path fill="url(&quot;#g___1586216136&quot;)" d="M623 151h41v49h-41z"></path><path fill="#F5F5F5" d="M1362 98c0-2.8 2.2-5 5-5h15.3c8.1 0 16-3.2 21.7-9 5.8-5.8 13.6-9 21.7-9h53.3c7.7 0 14 6.3 14 14s-6.3 14-14 14h-112c-2.8 0-5-2.2-5-5z"></path><path fill="#FFFFFF" d="M1355 165h-26l26 26"></path><path class="illustration-primary-fill" d="M1355 165h-26l13-13"></path><path fill="#D6D6D5" d="M1349 169h2v7h-2zm-8 0h2v7h-2z"></path><path d="M1313 200c6.2 0 13.6-2.6 18-7 5.3-5.3 12.5-8 20-8h20c4.3 0 9-2 12-5 2-2 4.4-4.2 7-5v25h-77z"></path><path class="illustration-tertiary-fill" d="M1043 144h-2v-5l2 2"></path><path class="illustration-primary-fill" d="M738.5 189h-10c-1.9 0-3.5-1.6-3.5-3.5s1.6-3.5 3.5-3.5h1.1c.9 0 1.8-.4 2.4-1 .6-.6 1.5-1 2.4-1h4.1c2.5 0 4.5 2 4.5 4.5s-2 4.5-4.5 4.5zM868 178.5c0-1.9 1.6-3.5 3.5-3.5 1.6 0 3.1-.6 4.3-1.8l.2-.2c1.3-1.3 3-2 4.8-2h7.7c3 0 5.5 2.5 5.5 5.5s-2.5 5.5-5.5 5.5h-17c-1.9 0-3.5-1.6-3.5-3.5zm88.5 10.5H968c1.7 0 3-1.3 3-3s-1.3-3-3-3h-.9c-1.4 0-2.6-.5-3.6-1.5s-2.3-1.5-3.6-1.5h-3.4c-2.5 0-4.4 2-4.4 4.5-.1 2.5 1.9 4.5 4.4 4.5z"></path><path fill="#D6D6D5" d="M1027 125l-1-1h1"></path><path fill="#FFFFFF" d="M1119 53h-24c-11.1 0-20 8.9-20 20v127h44V53z"></path><path fill="#D6D6D5" d="M1092 61h2v57h-2zm7 0h2v57h-2zm9 63l-2-2V61h2m7 70l-2-2V61h2"></path><path fill="#D6D6D5" d="M1143 156V53h-24v81l-16-16h-28v82h112"></path><path class="illustration-tertiary-fill" d="M1108 154h-2v-33l2 2m7 31h-2v-26l2 2m-17-6h2v7h-2zm-8 0h2v7h-2zm-8 0h2v7h-2zm16 13h2v7h-2zm-8 0h2v7h-2zm-8 0h2v7h-2zm16 13h2v7h-2zm-8 0h2v7h-2zm-8 0h2v7h-2zm20 32v2c0 1.3-.9 2.5-1.7 3.3l-2 2-.3.3V182h-2v18h2v-5c0-1.3.8-3.4 1.7-4.3l2-2c1-1 2.3-2.7 2.3-4.7v-2h-2z"></path><path fill="#FFFFFF" d="M1086 178.6c0-1.9 1.6-3.4 3.5-3.4h1.2c.9 0 1.8-.4 2.5-1l2.2-2.1c.7-.6 1.5-1 2.5-1h8.6c3.1 0 5.6 2.5 5.6 5.5s-2.5 5.5-5.6 5.5h-16.9c-2-.1-3.6-1.6-3.6-3.5z"></path><path class="illustration-tertiary-fill" d="M1126 189h2v11h-2z"></path><path fill="#FFFFFF" d="M1121.5 189h11.5c1.7 0 3-1.3 3-3s-1.3-3-3-3h-.9c-1.4 0-2.6-.5-3.6-1.5s-2.3-1.5-3.6-1.5h-3.4c-2.5 0-4.4 2-4.4 4.5-.1 2.5 1.9 4.5 4.4 4.5z"></path><path class="illustration-tertiary-fill" d="M1126 61h2v93h-2zm7 0h2v93h-2z"></path><path d="M594 200h-22.2 1c4 0 7.8-1.6 10.6-4.4L594 185v15zm-235.8-31h79.3c8 0 15.6 3.2 21.2 8.8l17.8 17.8c2.8 2.8 6.6 4.4 10.6 4.4H0l72.2-72.2c5.6-5.6 13.3-8.8 21.2-8.8H201c8 0 15.6 3.2 21.2 8.8l20.8 20.8c2.8 2.8 6.6 4.4 10.6 4.4h69.9c8 0 15.6 3.2 21.2 8.8l2.8 2.8c2.9 2.8 6.7 4.4 10.7 4.4z"></path></svg>